<svg width="35" height="35" viewBox="0 0 35 35" fill="none" xmlns="http://www.w3.org/2000/svg">
<g id="heroicons:home-20-solid">
<path id="Vector" fill-rule="evenodd" clip-rule="evenodd" d="M16.2627 4.01274C16.5909 3.68467 17.036 3.50037 17.5 3.50037C17.964 3.50037 18.4091 3.68467 18.7372 4.01274L30.9872 16.2627C31.2319 16.5075 31.3985 16.8193 31.466 17.1587C31.5335 17.4981 31.4989 17.8499 31.3664 18.1696C31.234 18.4894 31.0098 18.7626 30.722 18.9549C30.4343 19.1472 30.0961 19.2499 29.75 19.25H28V29.75C28 30.2141 27.8156 30.6592 27.4874 30.9874C27.1592 31.3156 26.7141 31.5 26.25 31.5H22.75C22.2859 31.5 21.8407 31.3156 21.5126 30.9874C21.1844 30.6592 21 30.2141 21 29.75V24.5C21 24.0359 20.8156 23.5907 20.4874 23.2626C20.1592 22.9344 19.7141 22.75 19.25 22.75H15.75C15.2859 22.75 14.8407 22.9344 14.5126 23.2626C14.1844 23.5907 14 24.0359 14 24.5V29.75C14 30.2141 13.8156 30.6592 13.4874 30.9874C13.1592 31.3156 12.7141 31.5 12.25 31.5H8.74999C8.28586 31.5 7.84075 31.3156 7.51256 30.9874C7.18437 30.6592 6.99999 30.2141 6.99999 29.75V19.25H5.24999C4.90393 19.2499 4.56566 19.1472 4.27794 18.9549C3.99022 18.7626 3.76598 18.4894 3.63356 18.1696C3.50113 17.8499 3.46648 17.4981 3.53397 17.1587C3.60147 16.8193 3.76808 16.5075 4.01274 16.2627L16.2627 4.01274Z" fill="black"/>
</g>
</svg>
