<svg width="25" height="25" viewBox="0 0 25 25" fill="none" xmlns="http://www.w3.org/2000/svg">
<path id="Vector" d="M23.6248 1.37519C22.7076 0.457981 21.6039 0 20.3126 0H4.68742C3.39607 0 2.29241 0.457981 1.37519 1.37519C0.457981 2.29241 0 3.39607 0 4.68742V20.3126C0 21.6039 0.457981 22.7076 1.37519 23.6248C2.29241 24.542 3.39607 25 4.68742 25H8.33375C8.5715 25 8.75044 24.9912 8.87056 24.975C9.01033 24.947 9.13647 24.8724 9.22844 24.7635C9.34731 24.6384 9.40738 24.4569 9.40738 24.2192L9.39862 23.1118C9.39361 22.406 9.39111 21.8479 9.39111 21.435L9.01572 21.5001C8.77797 21.5439 8.47765 21.5626 8.11352 21.5576C7.73398 21.5506 7.35565 21.5125 6.98233 21.4438C6.58492 21.3704 6.21081 21.2031 5.89119 20.9558C5.55645 20.7025 5.30679 20.3533 5.17543 19.9547L5.01276 19.5793C4.87566 19.2832 4.7034 19.0046 4.49972 18.7497C4.26698 18.4456 4.03048 18.2404 3.79148 18.1315L3.67886 18.0502C3.60033 17.994 3.52891 17.9284 3.46614 17.855C3.40619 17.7869 3.35684 17.7101 3.31974 17.6273C3.2872 17.5509 3.31473 17.4884 3.40107 17.4396C3.48866 17.3895 3.64508 17.3657 3.87407 17.3657L4.19941 17.4158C4.41589 17.4583 4.68492 17.5885 5.004 17.8049C5.32692 18.0251 5.59666 18.3145 5.79358 18.6521C6.04385 19.0963 6.34416 19.4354 6.69703 19.6694C7.0499 19.9021 7.40528 20.0198 7.76315 20.0198C8.12103 20.0198 8.4301 19.9922 8.69163 19.9384C8.94453 19.8861 9.19028 19.8038 9.42365 19.6932C9.52125 18.9674 9.78653 18.4068 10.2207 18.0164C9.65811 17.9613 9.1005 17.8634 8.55273 17.7236C8.01816 17.5768 7.50405 17.3636 7.02237 17.0892C6.5184 16.8148 6.07326 16.4441 5.71225 15.998C5.36563 15.5638 5.08033 14.9945 4.8576 14.29C4.63612 13.5843 4.52475 12.7697 4.52475 11.8474C4.52475 10.5348 4.9527 9.41739 5.80985 8.49392C5.40943 7.50788 5.44697 6.40047 5.92372 5.17543C6.23905 5.07658 6.70579 5.15041 7.32394 5.39441C7.94209 5.63842 8.39507 5.84739 8.68287 6.02007C8.97067 6.19526 9.20091 6.34166 9.37484 6.46053C10.3921 6.17743 11.4434 6.03512 12.4994 6.03759C13.5743 6.03759 14.6153 6.17899 15.6252 6.46053L16.2433 6.07012C16.7188 5.78464 17.2203 5.54498 17.7411 5.35437C18.3167 5.13664 18.7547 5.07783 19.06 5.17543C19.548 6.40172 19.5906 7.50788 19.1889 8.49517C20.046 9.41739 20.4753 10.5348 20.4753 11.8487C20.4753 12.7709 20.3639 13.588 20.1411 14.2975C19.9197 15.0083 19.6319 15.5776 19.279 16.0068C18.9116 16.4471 18.4646 16.8143 17.9614 17.0892C17.4358 17.382 16.9253 17.5935 16.431 17.7236C15.8833 17.8638 15.3257 17.9621 14.763 18.0177C15.3261 18.5057 15.6089 19.2752 15.6089 20.3276V24.2192C15.6089 24.4031 15.6352 24.552 15.6902 24.6659C15.7155 24.7208 15.7516 24.77 15.7963 24.8106C15.841 24.8512 15.8935 24.8824 15.9505 24.9024C16.0706 24.9449 16.1757 24.9725 16.2683 24.9825C16.3609 24.995 16.4936 24.9988 16.6663 24.9988H20.3126C21.6039 24.9988 22.7076 24.5408 23.6248 23.6236C24.5408 22.7076 25 21.6027 25 20.3113V4.68742C25 3.39607 24.542 2.29241 23.6248 1.37519Z" fill="white"/>
</svg>
